<svg width="32" height="32" viewBox="0 0 32 32" fill="none" xmlns="http://www.w3.org/2000/svg">
<path d="M4 17.3333C4 20.5159 5.26428 23.5681 7.51472 25.8186C9.76516 28.069 12.8174 29.3333 16 29.3333C16 26.1507 14.7357 23.0984 12.4853 20.848C10.2348 18.5976 7.1826 17.3333 4 17.3333ZM16 29.3333C19.1826 29.3333 22.2348 28.069 24.4853 25.8186C26.7357 23.5681 28 20.5159 28 17.3333C24.8174 17.3333 21.7652 18.5976 19.5147 20.848C17.2643 23.0984 16 26.1507 16 29.3333ZM24 3.99996V10.6666C24 12.7884 23.1571 14.8232 21.6569 16.3235C20.1566 17.8238 18.1217 18.6666 16 18.6666C13.8783 18.6666 11.8434 17.8238 10.3431 16.3235C8.84286 14.8232 8 12.7884 8 10.6666V3.99996C8.98667 3.99996 9.96 4.15996 10.88 4.51996C11.6133 4.82663 12.2667 5.27996 12.8133 5.85329L16 2.66663L19.1867 5.85329C19.7333 5.27996 20.3867 4.82663 21.12 4.51996C22.04 4.15996 23.0133 3.99996 24 3.99996Z" fill="white"/>
</svg>
