<svg width="64" height="64" viewBox="0 0 64 64" fill="none" xmlns="http://www.w3.org/2000/svg">
<path d="M31.0401 31.0402C30.3331 31.0402 29.7601 30.4672 29.7601 29.7602V22.7202C29.7601 22.0133 30.3331 21.4402 31.0401 21.4402H38.0801C38.787 21.4402 39.3601 22.0133 39.3601 22.7202V29.7602C39.3601 30.4672 38.787 31.0402 38.0801 31.0402H31.0401ZM36.8001 28.4802V24.0002H32.3201V28.4802H36.8001ZM52.5724 25.8367C52.3863 25.4079 52.0318 25.0534 51.603 24.8673C49.5581 23.9806 47.6606 25.8781 48.5472 27.9226C48.7335 28.3518 49.0879 28.7062 49.5168 28.8924C51.5616 29.7791 53.4591 27.8816 52.5725 25.8367H52.5724ZM54.921 24.818C56.7314 28.9931 52.6731 33.0514 48.498 31.241C47.4731 30.7962 46.6435 29.9667 46.1986 28.9415C44.3884 24.7667 48.4467 20.7084 52.6218 22.5189C53.6466 22.9636 54.4762 23.7931 54.921 24.818ZM44.393 7.07812C45.3931 6.74268 46.3468 7.69293 46.0151 8.69418L43.0283 17.7105C42.7281 18.6164 41.578 18.8872 40.9053 18.2102L34.9321 12.1994C34.2634 11.5264 34.5336 10.3853 35.433 10.0836L44.393 7.07812ZM38.1997 11.8557L41.2531 14.9284L42.78 10.3193L38.1997 11.8557ZM23.7021 7.27086C27.513 11.3749 27.513 18.0649 23.7021 22.1689C23.2211 22.687 23.2511 23.4969 23.7691 23.9779C24.2871 24.4589 25.097 24.4289 25.578 23.9109C30.3009 18.8246 30.3009 10.6152 25.578 5.52893C25.097 5.01086 24.2871 4.98087 23.7691 5.46193C23.2511 5.94299 23.221 6.75286 23.7021 7.27086ZM42.4983 41.6492C46.5953 37.6134 53.2448 37.6134 57.3418 41.6492C57.8454 42.1454 58.6558 42.1392 59.1519 41.6357C59.648 41.1321 59.6419 40.3216 59.1383 39.8256C54.0448 34.808 45.7953 34.808 40.7018 39.8256C40.1981 40.3217 40.1921 41.1321 40.6882 41.6357C41.1843 42.1392 41.9948 42.1454 42.4983 41.6492ZM4.73164 56.5692L16.8526 27.8927C17.6168 26.0832 19.652 25.6856 21.0418 27.0741L36.9262 42.9579C38.3158 44.3463 37.9185 46.3819 36.1089 47.1474L7.43058 59.2667C5.39964 60.1264 3.87364 58.6006 4.73164 56.5692ZM35.112 44.7894C35.2133 44.7465 35.2146 44.7451 35.2047 44.7961C35.1947 44.8474 35.1943 44.8461 35.1165 44.7684L19.232 28.8846C19.1544 28.8071 19.1528 28.8064 19.2038 28.7965C19.2548 28.7866 19.2536 28.7876 19.2108 28.889L7.57046 56.4284L35.112 44.7894ZM7.57046 56.4284L6.43333 56.909C6.34202 56.9476 6.29458 56.9589 6.30721 56.9589C6.45314 56.9593 6.64289 57.0269 6.80764 57.1916C6.97233 57.3563 7.03983 57.5457 7.04021 57.6914C7.04027 57.7037 7.05152 57.6561 7.08983 57.5654L7.57039 56.4284L7.57046 56.4284Z" fill="white"/>
<path d="M10.9778 46.8475L17.1525 53.0216C17.6524 53.5215 18.4629 53.5214 18.9627 53.0215C19.4625 52.5215 19.4625 51.7111 18.9626 51.2113L12.7878 45.0372C12.2879 44.5373 11.4774 44.5374 10.9776 45.0373C10.4778 45.5373 10.4778 46.3477 10.9778 46.8475Z" fill="white"/>
</svg>
