<svg width="32" height="32" viewBox="0 0 32 32" fill="none" xmlns="http://www.w3.org/2000/svg">
<path d="M4 2.66663H8C8.37333 2.66663 8.70667 2.81329 8.94667 3.05329L11.72 5.83996L12.7867 4.78663C13.3333 4.26663 14 3.99996 14.6667 3.99996H22.6667C23.3333 3.99996 24 4.26663 24.5467 4.78663L25.88 6.11996C26.4 6.66663 26.6667 7.33329 26.6667 7.99996V25.3333C26.6667 26.0405 26.3857 26.7188 25.8856 27.2189C25.3855 27.719 24.7072 28 24 28H10.6667C9.95942 28 9.28115 27.719 8.78105 27.2189C8.28095 26.7188 8 26.0405 8 25.3333V17.3333V16V10.6666C8 9.99996 8.26667 9.33329 8.78667 8.78663L9.84 7.71996L7.45333 5.33329H4V2.66663ZM14.6667 6.66663V9.33329H22.6667V6.66663H14.6667ZM15.2133 14.6666L12.5467 12H10.6667V13.88L13.3333 16.5466V20.7866L10.6667 23.4533V25.3333H12.5467L15.2133 22.6666H19.4533L22.12 25.3333H24V23.4533L21.3333 20.7866V16.5466L24 13.88V12H22.12L19.4533 14.6666H15.2133ZM16 17.3333H18.6667V20H16V17.3333Z" fill="white"/>
</svg>
