<svg width="32" height="32" viewBox="0 0 32 32" fill="none" xmlns="http://www.w3.org/2000/svg">
<path d="M7.80812 13.312C7.06145 13.312 6.42678 13.5733 5.90412 14.096C5.38145 14.6187 5.12012 15.2533 5.12012 16C5.12012 16.7467 5.38145 17.3813 5.90412 17.904C6.42678 18.4267 7.06145 18.688 7.80812 18.688C8.55478 18.688 9.18945 18.4267 9.71212 17.904C10.2348 17.3813 10.4961 16.7467 10.4961 16C10.4961 15.2533 10.2348 14.6187 9.71212 14.096C9.18945 13.5733 8.55478 13.312 7.80812 13.312ZM16.0001 13.312C15.2535 13.312 14.6188 13.5733 14.0961 14.096C13.5735 14.6187 13.3121 15.2533 13.3121 16C13.3121 16.7467 13.5735 17.3813 14.0961 17.904C14.6188 18.4267 15.2481 18.688 15.9841 18.688C16.7201 18.688 17.3548 18.4267 17.8881 17.904C18.4215 17.3813 18.6881 16.7467 18.6881 16C18.6881 15.2533 18.4215 14.6187 17.8881 14.096C17.3548 13.5733 16.7148 13.312 15.9681 13.312H16.0001ZM24.1921 13.312C23.4455 13.312 22.8108 13.5733 22.2881 14.096C21.7655 14.6187 21.5041 15.2533 21.5041 16C21.5041 16.7467 21.7655 17.3813 22.2881 17.904C22.8108 18.4267 23.4455 18.688 24.1921 18.688C24.9388 18.688 25.5735 18.4267 26.0961 17.904C26.6188 17.3813 26.8801 16.7467 26.8801 16C26.8801 15.2533 26.6188 14.6187 26.0961 14.096C25.5735 13.5733 24.9388 13.312 24.1921 13.312Z" fill="white"/>
</svg>
