<svg width="64" height="64" viewBox="0 0 177 248" fill="none" xmlns="http://www.w3.org/2000/svg">
<path d="M175.883 1H23.3828V15.5H43.3828L48.8828 18.5V101H75.8828H127.883L129.883 112H139.883V74H129.883L127.883 85H75.8828V18.5H159.883V49H175.883V1Z" fill="#4D52BC"/>
<path d="M80.3828 232L75.8828 226V178.5H48.3828V226L43.3828 232H23.3828V247H101.883V232H80.3828Z" fill="#4D52BC"/>
<path d="M175.883 1H23.3828V15.5H43.3828L48.8828 18.5V101H75.8828H127.883L129.883 112H139.883V74H129.883L127.883 85H75.8828V18.5H159.883V49H175.883V1Z" stroke="#4D52BC"/>
<path d="M80.3828 232L75.8828 226V178.5H48.3828V226L43.3828 232H23.3828V247H101.883V232H80.3828Z" stroke="#4D52BC"/>
<path d="M0 161.094V158H1.625C2.91667 158 3.82292 157.906 4.34375 157.719C4.88542 157.51 5.20833 157.219 5.3125 156.844C5.4375 156.469 5.5 156.01 5.5 155.469V125.906C5.5 125.073 5.27083 124.531 4.8125 124.281C4.375 124.031 3.34375 123.896 1.71875 123.875C1.46875 123.875 1.19792 123.875 0.90625 123.875C0.635417 123.875 0.333333 123.875 0 123.875V120.781H18.4062C21.8229 120.781 24.6146 121.271 26.7812 122.25C28.9688 123.229 30.5833 124.594 31.625 126.344C32.6667 128.073 33.1875 130.083 33.1875 132.375C33.1875 134.646 32.6875 136.646 31.6875 138.375C30.7083 140.104 29.1354 141.458 26.9688 142.438C24.8229 143.396 21.9896 143.875 18.4688 143.875H11.2188V155.594C11.2188 156.76 11.5 157.458 12.0625 157.688C12.625 157.896 13.6562 158 15.1562 158H16.75V161.094C15.625 161.094 14.5417 161.083 13.5 161.062C12.4792 161.042 11.1667 161.031 9.5625 161.031C7.64583 161.031 5.9375 161.042 4.4375 161.062C2.9375 161.083 1.45833 161.094 0 161.094ZM11.2188 140.656H17.1875C24.1042 140.656 27.5625 137.927 27.5625 132.469C27.5625 129.76 26.7812 127.688 25.2188 126.25C23.6771 124.812 21.0521 124.094 17.3438 124.094H11.2188V140.656Z" fill="#4D52BC"/>
<path d="M82.3 161.844C80.2792 161.844 78.7063 161.302 77.5813 160.219C76.4771 159.135 75.5813 157.635 74.8938 155.719C74.2271 153.802 73.5396 151.583 72.8313 149.062C72.4563 147.708 71.9563 146.5 71.3313 145.438C70.7063 144.354 70.1021 143.396 69.5188 142.562C68.8938 142.333 68.1542 142.167 67.3 142.062C66.4667 141.958 65.5292 141.906 64.4875 141.906H60.3625V156.375C60.3625 157.188 60.6333 157.667 61.175 157.812C61.7375 157.938 62.7792 158 64.3 158H65.925V161.094C64.675 161.094 63.4458 161.094 62.2375 161.094C61.0292 161.073 59.5604 161.052 57.8312 161.031C55.9979 161.031 54.3937 161.042 53.0187 161.062C51.6646 161.083 50.3104 161.094 48.9562 161.094V158H50.5187C51.9146 158 52.8937 157.927 53.4562 157.781C54.0396 157.635 54.3833 157.417 54.4875 157.125C54.6125 156.812 54.675 156.438 54.675 156V125.875C54.675 125.292 54.6021 124.865 54.4562 124.594C54.3312 124.302 53.9771 124.115 53.3937 124.031C52.8312 123.927 51.8937 123.875 50.5812 123.875C50.3312 123.875 50.0708 123.875 49.8 123.875C49.5292 123.875 49.2479 123.875 48.9562 123.875V120.781H66.175C68.4667 120.781 70.5813 120.927 72.5188 121.219C74.4771 121.51 76.1854 122.031 77.6438 122.781C79.1021 123.51 80.2375 124.562 81.05 125.938C81.8625 127.292 82.2688 129.031 82.2688 131.156C82.2688 133.635 81.4979 135.719 79.9563 137.406C78.4146 139.073 76.2375 140.208 73.425 140.812C74.6542 141.75 75.7479 142.885 76.7063 144.219C77.6646 145.531 78.4458 147.521 79.05 150.188C79.6958 152.938 80.2792 154.948 80.8 156.219C81.3417 157.469 82.1854 158.094 83.3313 158.094C83.9563 158.094 84.55 157.917 85.1125 157.562C85.675 157.188 85.9563 156.365 85.9563 155.094L89.1125 154.812C89.1125 156.958 88.5188 158.667 87.3313 159.938C86.1438 161.208 84.4667 161.844 82.3 161.844ZM60.3625 138.875H67.175C70.55 138.875 72.9667 138.312 74.425 137.188C75.8833 136.062 76.6125 134.167 76.6125 131.5C76.6125 129.458 76.1646 127.917 75.2688 126.875C74.3938 125.812 73.1125 125.094 71.425 124.719C69.7375 124.344 67.6646 124.156 65.2063 124.156H60.3625V138.875Z" fill="#4D52BC"/>
<path d="M125.319 161.844C121.027 161.844 117.319 160.979 114.194 159.25C111.069 157.5 108.662 155.062 106.975 151.938C105.308 148.792 104.475 145.115 104.475 140.906C104.475 136.74 105.308 133.094 106.975 129.969C108.662 126.823 111.048 124.375 114.131 122.625C117.215 120.875 120.871 120 125.1 120C129.308 120 132.954 120.875 136.038 122.625C139.121 124.375 141.506 126.823 143.194 129.969C144.881 133.094 145.725 136.74 145.725 140.906C145.725 145.052 144.881 148.698 143.194 151.844C141.527 154.969 139.163 157.417 136.1 159.188C133.058 160.958 129.465 161.844 125.319 161.844ZM125.069 158.219C129.548 158.219 133.079 156.667 135.663 153.562C138.246 150.438 139.538 146.219 139.538 140.906C139.538 135.531 138.246 131.292 135.663 128.188C133.079 125.083 129.548 123.531 125.069 123.531C120.569 123.531 117.027 125.094 114.444 128.219C111.881 131.344 110.6 135.562 110.6 140.875C110.6 146.208 111.892 150.438 114.475 153.562C117.079 156.667 120.61 158.219 125.069 158.219Z" fill="#4D52BC"/>
</svg>
