<svg width="32" height="32" viewBox="0 0 28 27" fill="none" xmlns="http://www.w3.org/2000/svg">
<path d="M26.5 26.5H14H1.5C1.22386 26.5 1 26.2761 1 26C1 25.6679 1.04073 25.3371 1.12127 25.0149L1.3285 24.186C1.44072 23.7371 1.67283 23.3272 2 23L2.38197 22.618C3.11722 21.8828 4.01356 21.3288 5 21L6.5 20.5L6.93934 20.3536C7.64556 20.1181 8.33417 19.8329 9 19.5L9.64394 19.178C9.87977 19.0601 10.095 18.9049 10.2815 18.7185C10.7415 18.2585 11 17.6345 11 16.9839V16.0161C11 15.3655 10.7415 14.7415 10.2815 14.2815C10.095 14.095 9.93989 13.8798 9.82197 13.6439L9.5 13L9 12L8.5 11L8.21536 10.4307C8.07197 10.1439 7.94911 9.84734 7.84772 9.54316C7.61741 8.85224 7.5 8.12871 7.5 7.40041V6C7.5 5.34795 7.69301 4.71049 8.0547 4.16795L8.25356 3.86966C8.41745 3.62382 8.60523 3.39477 8.81415 3.18585L9.03633 2.96367C9.34469 2.65531 9.68275 2.37817 10.0456 2.13627C10.6772 1.71522 11.3764 1.4059 12.1128 1.2218L12.1691 1.20772C12.721 1.06976 13.2876 1 13.8565 1H14.1435C14.7124 1 15.279 1.06976 15.8309 1.20772L15.8872 1.2218C16.6236 1.4059 17.3228 1.71522 17.9544 2.13627C18.3172 2.37817 18.6553 2.65531 18.9637 2.96367L19.1858 3.18585C19.3948 3.39477 19.5825 3.62382 19.7464 3.86966L19.9453 4.16795C20.307 4.71049 20.5 5.34795 20.5 6V7.40041C20.5 8.12871 20.3826 8.85224 20.1523 9.54316C20.0509 9.84734 19.928 10.1439 19.7846 10.4307L19.5 11L19 12L18.5 13L18.178 13.6439C18.0601 13.8798 17.9049 14.095 17.7185 14.2815C17.2585 14.7415 17 15.3655 17 16.0161V16.9839C17 17.6345 17.2585 18.2585 17.7185 18.7185C17.9049 18.9049 18.1202 19.0601 18.3561 19.178L19 19.5C19.6658 19.8329 20.3544 20.1181 21.0607 20.3536L21.5 20.5L23 21C23.9864 21.3288 24.8828 21.8828 25.618 22.618L26 23C26.3272 23.3272 26.5593 23.7371 26.6715 24.186L26.8787 25.0149C26.9593 25.3371 27 25.6679 27 26C27 26.2761 26.7761 26.5 26.5 26.5Z" fill="#4D52BC" stroke="#4D52BC"/>
</svg>
